<svg xmlns="http://www.w3.org/2000/svg" viewBox="0 0 139.65 37.6"><defs><style>.cls-1{fill:#3d7723;}.cls-2{fill:#fff;stroke:#f9f9f9;stroke-width:3px;}.cls-2,.cls-3{stroke-miterlimit:10;}.cls-3{stroke:#070707;}.cls-4{font-size:25px;font-family:FranklinGothic-Medium, Franklin Gothic Medium;font-weight:500;}.cls-5{letter-spacing:0.01em;}</style></defs><title>Recurso 2</title><g id="Capa_2" data-name="Capa 2"><g id="Capa_1-2" data-name="Capa 1"><polygon class="cls-1" points="26.95 6.42 24.78 3.72 5.99 27.06 10.33 27.06 26.95 6.42"/><polygon class="cls-1" points="29.48 9.56 27.54 7.16 11.52 27.06 15.4 27.06 29.48 9.56"/><polygon class="cls-1" points="24.18 2.98 21.78 0 0 27.06 4.8 27.06 24.18 2.98"/><polygon class="cls-1" points="39.98 22.61 36.4 27.06 43.31 27.06 43.44 26.9 39.98 22.61"/><polygon class="cls-1" points="39.39 21.87 36.87 18.75 30.18 27.06 35.21 27.06 39.39 21.87"/><polygon class="cls-1" points="36.28 18.01 33.3 14.31 23.04 27.06 28.99 27.06 36.28 18.01"/><polygon class="cls-1" points="32.71 13.57 30.08 10.3 16.59 27.06 21.85 27.06 32.71 13.57"/><path class="cls-2" d="M41.41,20.73H28.69a9.16,9.16,0,0,0,.79,1H40.63A9.07,9.07,0,0,0,41.41,20.73Z"/><path class="cls-2" d="M27,15.28c0,.13,0,.27,0,.4H43.11v-.4c0-.19,0-.37,0-.56H27C27,14.91,27,15.09,27,15.28Z"/><path class="cls-2" d="M38.72,7.38a7.41,7.41,0,0,0-7.33,0Z"/><path class="cls-2" d="M28.05,19.69h14a8.26,8.26,0,0,0,.43-1H27.62A10.38,10.38,0,0,0,28.05,19.69Z"/><path class="cls-2" d="M28.81,9.67H41.3a9,9,0,0,0-1.13-1.25H29.94A9,9,0,0,0,28.81,9.67Z"/><path class="cls-2" d="M30.68,22.73a7.45,7.45,0,0,0,8.75,0Z"/><path class="cls-2" d="M27.1,16.72a9.59,9.59,0,0,0,.19,1H42.81a9.59,9.59,0,0,0,.2-1Z"/><path class="cls-2" d="M28.14,10.71a8.39,8.39,0,0,0-.45,1H42.42a10.59,10.59,0,0,0-.46-1Z"/><path class="cls-2" d="M27.33,12.72q-.12.46-.21,1H43a7.43,7.43,0,0,0-.21-1Z"/><path class="cls-3" d="M41,20.73H28.23a8.06,8.06,0,0,0,.79,1H40.17A9.07,9.07,0,0,0,41,20.73Z"/><path class="cls-3" d="M26.53,15.28c0,.13,0,.27,0,.4H42.65v-.4c0-.19,0-.37,0-.56H26.55C26.54,14.91,26.53,15.09,26.53,15.28Z"/><path class="cls-3" d="M38.25,7.38a7.39,7.39,0,0,0-7.32,0Z"/><path class="cls-3" d="M27.59,19.69h14a8.26,8.26,0,0,0,.43-1H27.16A10.38,10.38,0,0,0,27.59,19.69Z"/><path class="cls-3" d="M28.35,9.67H40.83a8.33,8.33,0,0,0-1.12-1.25H29.48A9,9,0,0,0,28.35,9.67Z"/><path class="cls-3" d="M30.22,22.73a7.45,7.45,0,0,0,8.75,0Z"/><path class="cls-3" d="M26.64,16.72a7.41,7.41,0,0,0,.19,1H42.35a9.59,9.59,0,0,0,.2-1Z"/><path class="cls-3" d="M27.68,10.71a8.39,8.39,0,0,0-.45,1H42a10.59,10.59,0,0,0-.46-1Z"/><path class="cls-3" d="M26.87,12.72q-.12.46-.21,1H42.52a7.43,7.43,0,0,0-.21-1Z"/><polygon class="cls-1" points="21.88 28.45 14.51 37.6 20.47 37.6 27.75 28.55 27.67 28.45 21.88 28.45"/><polygon class="cls-1" points="29.49 28.45 22.11 37.6 28.07 37.6 35.36 28.55 35.27 28.45 29.49 28.45"/><polygon class="cls-1" points="37.09 28.45 29.72 37.6 35.67 37.6 42.96 28.55 42.88 28.45 37.09 28.45"/><text class="cls-4" transform="translate(47.96 22.31) scale(1.46 1)">I<tspan class="cls-5" x="6.66" y="0">T</tspan><tspan x="18.94" y="0">S</tspan><tspan class="cls-1" x="33.23" y="0">CS</tspan></text></g></g></svg>